<svg width="206" height="149" viewBox="0 0 206 149" fill="none" xmlns="http://www.w3.org/2000/svg">
<path d="M16.1965 122.824C16.1965 123.733 16.0313 124.642 15.7834 125.386C15.5354 126.13 15.1223 126.791 14.6265 127.287C14.048 127.865 13.4696 128.278 12.7258 128.526C11.9821 128.857 11.0731 129.022 10.1641 129.022H3.80123V133.236H0V124.725H10.4947C11.0731 124.725 11.5689 124.56 11.8995 124.229C12.23 123.898 12.3953 123.403 12.3953 122.824C12.3953 122.246 12.23 121.75 11.8995 121.419C11.5689 121.089 11.0731 120.924 10.4947 120.924H0L2.47906 116.544H10.1641C11.1558 116.544 11.9821 116.709 12.7258 117.04C13.4696 117.37 14.048 117.783 14.6265 118.279C15.1223 118.858 15.5354 119.519 15.7834 120.263C16.0313 121.089 16.1965 121.915 16.1965 122.824Z" fill="#2A76AC"/>
<path d="M26.6085 116.295C29.5833 116.295 31.8145 116.956 33.3019 118.361C34.7894 119.766 35.5331 121.914 35.5331 124.889C35.5331 127.864 34.7894 130.095 33.3019 131.5C31.8971 132.822 29.5833 133.566 26.6085 133.566C23.6336 133.566 21.4024 132.822 19.915 131.5C18.4276 130.095 17.6838 127.864 17.6838 124.889C17.6838 121.914 18.4276 119.766 19.915 118.361C21.4024 116.956 23.6336 116.295 26.6085 116.295ZM26.6085 129.186C27.6001 129.186 28.4264 129.186 29.0875 129.021C29.666 128.938 30.2444 128.69 30.6576 128.442C31.0708 128.112 31.3187 127.616 31.5666 127.12C31.7318 126.542 31.8145 125.798 31.8145 124.889C31.8145 123.98 31.7318 123.319 31.5666 122.74C31.3187 122.162 31.0708 121.749 30.6576 121.418C30.2444 121.088 29.666 120.923 29.0875 120.84C28.4264 120.675 27.6001 120.675 26.6085 120.675C25.6995 120.675 24.8731 120.675 24.212 120.84C23.5509 120.923 23.0551 121.088 22.642 121.418C22.2288 121.749 21.8982 122.162 21.733 122.74C21.5677 123.319 21.4851 123.98 21.4851 124.889C21.4851 125.798 21.5677 126.542 21.733 127.12C21.8982 127.616 22.2288 128.112 22.642 128.442C23.0551 128.69 23.5509 128.938 24.212 129.021C24.8731 129.186 25.6995 129.186 26.6085 129.186Z" fill="#2A76AC"/>
<path d="M50.738 128.938L48.259 133.235H37.5164V116.543H41.2349V128.938H50.738Z" fill="#2A76AC"/>
<path d="M56.6051 133.235L58.8363 128.938H61.8938C62.307 128.938 62.6375 128.938 63.0507 128.938C63.4639 128.938 63.7944 129.021 64.1249 129.021C63.9597 128.69 63.7118 128.36 63.4639 127.864C63.2986 127.451 63.0507 127.038 62.8854 126.624L60.6543 122.162L54.9524 133.235H50.4075L58.2578 118.196C58.5057 117.7 58.8363 117.287 59.2495 116.873C59.6626 116.46 60.1584 116.295 60.7369 116.295C61.3153 116.295 61.8112 116.46 62.1417 116.791C62.5549 117.204 62.8854 117.617 63.1333 118.196L70.8184 133.235H56.6051Z" fill="#2A76AC"/>
<path d="M89.4942 133.235H84.3708L81.7264 128.856H75.8593V133.235H72.0581V124.724H82.7181C83.2965 124.724 83.7923 124.559 84.2055 124.228C84.6187 123.898 84.784 123.402 84.784 122.823C84.784 122.245 84.6187 121.749 84.2881 121.418C83.875 121.088 83.3791 120.923 82.7181 120.923H72.0581L74.5372 116.543H82.3875C83.1312 116.543 83.7923 116.626 84.536 116.791C85.2798 117.039 86.0235 117.287 86.6019 117.782C87.1804 118.196 87.6762 118.857 88.0894 119.6C88.5025 120.344 88.6678 121.336 88.6678 122.575C88.6678 123.154 88.6678 123.815 88.5025 124.393C88.3373 124.972 88.0894 125.468 87.8415 125.963C87.5936 126.459 87.263 126.79 86.8498 127.12C86.4367 127.451 86.0235 127.699 85.5277 127.864C85.6929 128.029 85.9408 128.36 86.1888 128.69C86.4367 129.021 86.7672 129.434 87.1804 130.013L89.4942 133.235Z" fill="#2A76AC"/>
<path d="M94.6175 133.235H90.8989V116.543H94.6175V133.235Z" fill="#2A76AC"/>
<path d="M108.335 123.236C109.823 123.236 110.98 123.65 111.723 124.393C112.55 125.137 112.963 126.294 112.963 127.781C112.963 128.69 112.798 129.434 112.632 130.095C112.467 130.756 112.136 131.335 111.723 131.831C111.31 132.326 110.732 132.657 110.071 132.905C109.41 133.153 108.583 133.235 107.674 133.235H96.2705L98.7496 128.938H108.005C108.418 128.938 108.748 128.856 108.996 128.69C109.162 128.525 109.244 128.195 109.244 127.781C109.244 127.286 109.162 127.038 108.996 126.79C108.748 126.624 108.418 126.542 108.005 126.542H101.311C100.568 126.542 99.8238 126.459 99.2454 126.211C98.6669 125.963 98.2538 125.633 97.8406 125.22C97.51 124.807 97.1795 124.311 97.0142 123.732C96.849 123.154 96.7663 122.493 96.7663 121.749C96.7663 121.005 96.849 120.262 97.0142 119.6C97.2621 119.022 97.5927 118.444 98.0059 118.03C98.419 117.535 98.9148 117.204 99.5759 116.956C100.237 116.708 101.063 116.543 101.972 116.543H112.632L110.153 120.923H101.724C101.229 120.923 100.898 121.005 100.733 121.171C100.485 121.336 100.402 121.666 100.402 122.08C100.402 122.493 100.485 122.823 100.733 122.989C100.898 123.154 101.229 123.236 101.724 123.236H108.335Z" fill="#2A76AC"/>
<path d="M137.175 128.938L134.696 133.235H128.581C127.507 133.235 126.515 133.07 125.606 132.657C124.78 132.161 123.953 131.583 123.292 130.839C122.631 130.095 122.135 129.186 121.805 128.112C121.392 127.12 121.226 125.963 121.226 124.724C121.226 123.567 121.392 122.41 121.805 121.418C122.135 120.427 122.631 119.518 123.292 118.857C123.953 118.113 124.78 117.535 125.606 117.121C126.515 116.791 127.507 116.543 128.581 116.543H137.175L134.696 120.923H128.581C128.085 120.923 127.589 121.005 127.176 121.253C126.763 121.418 126.35 121.666 126.019 122.08C125.689 122.41 125.441 122.823 125.275 123.319C125.11 123.815 125.028 124.393 125.028 124.972C125.028 125.55 125.11 126.129 125.275 126.624C125.441 127.12 125.689 127.533 126.019 127.864C126.35 128.195 126.763 128.525 127.176 128.69C127.589 128.856 128.085 128.938 128.581 128.938H137.175Z" fill="#2A76AC"/>
<path d="M151.718 128.938L149.239 133.235H138.497V116.543H142.215V128.938H151.718Z" fill="#2A76AC"/>
<path d="M161.056 116.295C164.031 116.295 166.262 116.956 167.75 118.361C169.237 119.766 169.981 121.914 169.981 124.889C169.981 127.864 169.237 130.095 167.75 131.5C166.262 132.822 164.031 133.566 161.056 133.566C158.082 133.566 155.85 132.822 154.363 131.5C152.876 130.095 152.132 127.864 152.132 124.889C152.132 121.914 152.876 119.766 154.363 118.361C155.85 116.956 158.082 116.295 161.056 116.295ZM161.056 129.186C161.965 129.186 162.792 129.186 163.453 129.021C164.114 128.938 164.692 128.69 165.023 128.442C165.436 128.112 165.767 127.616 165.932 127.12C166.097 126.542 166.262 125.798 166.262 124.889C166.262 123.98 166.097 123.319 165.932 122.74C165.767 122.162 165.436 121.749 165.023 121.418C164.692 121.088 164.114 120.923 163.453 120.84C162.792 120.675 161.965 120.675 161.056 120.675C160.065 120.675 159.321 120.675 158.66 120.84C157.999 120.923 157.42 121.088 157.007 121.418C156.594 121.749 156.346 122.162 156.181 122.74C155.933 123.319 155.85 123.98 155.85 124.889C155.85 125.798 155.933 126.542 156.181 127.12C156.346 127.616 156.594 128.112 157.007 128.442C157.42 128.69 157.999 128.938 158.66 129.021C159.321 129.186 160.065 129.186 161.056 129.186Z" fill="#2A76AC"/>
<path d="M187.747 125.963C187.747 131.004 185.268 133.566 180.145 133.566C178.657 133.566 177.418 133.401 176.344 133.07C175.269 132.739 174.443 132.244 173.699 131.665C173.038 131.004 172.542 130.26 172.212 129.269C171.881 128.36 171.716 127.286 171.716 125.963V116.543H175.517V125.963C175.517 126.624 175.6 127.12 175.683 127.533C175.848 127.947 176.013 128.277 176.344 128.525C176.674 128.773 177.17 129.021 177.748 129.104C178.41 129.186 179.153 129.269 180.145 129.269C180.889 129.269 181.467 129.186 181.963 129.104C182.459 128.938 182.872 128.773 183.12 128.525C183.45 128.195 183.698 127.864 183.781 127.451C183.946 127.038 183.946 126.542 183.946 125.963V116.543H187.747V125.963Z" fill="#2A76AC"/>
<path d="M205.432 124.724C205.432 125.963 205.266 127.12 204.936 128.112C204.523 129.186 204.027 130.095 203.366 130.839C202.705 131.583 201.961 132.161 201.052 132.657C200.143 133.07 199.151 133.235 198.077 133.235H189.896V122.823H193.697V128.938H198.077C198.656 128.938 199.151 128.856 199.565 128.69C199.978 128.525 200.391 128.195 200.721 127.864C201.052 127.533 201.3 127.12 201.465 126.624C201.63 126.129 201.713 125.55 201.713 124.972C201.713 124.393 201.63 123.898 201.465 123.319C201.3 122.823 200.969 122.41 200.639 122.08C200.391 121.749 199.978 121.418 199.565 121.253C199.069 121.005 198.656 120.923 198.077 120.923H189.896L192.293 116.543H198.077C199.151 116.543 200.143 116.791 201.052 117.204C201.961 117.535 202.705 118.113 203.366 118.857C204.027 119.6 204.523 120.427 204.936 121.418C205.266 122.493 205.432 123.567 205.432 124.724Z" fill="#2A76AC"/>
<path d="M70.6921 142.573C71.849 142.573 72.6753 142.82 73.2538 143.316C73.9148 143.729 74.1627 144.473 74.1627 145.382C74.1627 145.878 74.0801 146.374 73.9148 146.787C73.8322 147.2 73.5843 147.531 73.2538 147.779C72.9232 148.109 72.51 148.274 72.0142 148.44C71.5184 148.605 70.8573 148.688 70.1962 148.688H61.5195L63.3375 146.043H70.4441C70.7747 146.043 71.0226 146.043 71.1879 145.878C71.3531 145.795 71.3531 145.63 71.3531 145.3C71.3531 145.052 71.3531 144.886 71.1879 144.804C71.0226 144.638 70.7747 144.638 70.4441 144.638H65.3208C64.7423 144.638 64.2465 144.556 63.7507 144.391C63.3375 144.225 63.007 144.06 62.6764 143.812C62.4285 143.564 62.1806 143.234 62.098 142.903C61.9327 142.49 61.8501 142.159 61.8501 141.664C61.8501 141.25 61.9327 140.755 62.098 140.424C62.2632 140.011 62.5112 139.68 62.7591 139.432C63.0896 139.102 63.5028 138.937 63.9986 138.771C64.4944 138.606 65.1555 138.523 65.8166 138.523H73.9148L72.0969 141.168H65.6513C65.3208 141.168 65.0729 141.25 64.9076 141.333C64.7423 141.416 64.6597 141.581 64.6597 141.911C64.6597 142.159 64.7423 142.325 64.9076 142.407C65.0729 142.573 65.3208 142.573 65.6513 142.573H70.6921Z" fill="#2A76AC"/>
<path d="M86.2272 146.043L84.4092 148.688H75.4846V138.523H86.2272L84.3266 141.168H78.3769V142.407H85.7314L84.0787 144.721H78.3769V146.043H86.2272Z" fill="#2A76AC"/>
<path d="M100.441 148.688H96.5568L94.4909 146.043H90.1112V148.688H87.219V143.482H95.3173C95.7304 143.482 96.1436 143.399 96.4742 143.234C96.7221 142.986 96.8873 142.738 96.8873 142.325C96.8873 141.994 96.7221 141.664 96.4742 141.498C96.2262 141.25 95.8131 141.168 95.3173 141.168H87.219L89.1196 138.523H95.0694C95.5652 138.523 96.1436 138.606 96.7221 138.689C97.3005 138.771 97.7963 139.019 98.2921 139.267C98.7053 139.515 99.1185 139.928 99.3664 140.341C99.6969 140.837 99.8622 141.416 99.8622 142.159C99.8622 142.573 99.7796 142.903 99.6969 143.316C99.6143 143.647 99.449 143.977 99.2011 144.225C99.0358 144.556 98.7053 144.804 98.4574 144.969C98.1269 145.134 97.7963 145.3 97.3831 145.382C97.5484 145.547 97.7963 145.713 97.9616 145.878C98.1269 146.126 98.3748 146.374 98.7053 146.704L100.441 148.688Z" fill="#2A76AC"/>
<path d="M103.25 138.523L107.465 145.3L111.762 138.523H115.232L109.282 147.696C109.035 148.027 108.787 148.274 108.456 148.522C108.208 148.77 107.795 148.853 107.382 148.853C106.969 148.853 106.556 148.77 106.308 148.522C105.977 148.274 105.729 148.027 105.564 147.696L99.6968 138.523H103.25Z" fill="#2A76AC"/>
<path d="M119.116 148.688H116.224V138.523H119.116V148.688Z" fill="#2A76AC"/>
<path d="M132.751 146.043L130.933 148.688H126.223C125.479 148.688 124.735 148.522 123.992 148.274C123.331 148.027 122.752 147.696 122.256 147.2C121.761 146.787 121.347 146.209 121.099 145.547C120.769 144.969 120.686 144.225 120.686 143.482C120.686 142.738 120.769 142.077 121.099 141.498C121.347 140.837 121.761 140.341 122.256 139.928C122.752 139.432 123.331 139.102 123.992 138.854C124.735 138.689 125.479 138.523 126.223 138.523H132.751L130.933 141.168H126.223C125.892 141.168 125.479 141.25 125.149 141.333C124.818 141.498 124.57 141.664 124.322 141.829C124.074 142.077 123.909 142.325 123.744 142.655C123.579 142.986 123.496 143.316 123.496 143.647C123.496 143.977 123.579 144.308 123.744 144.638C123.826 144.969 124.074 145.217 124.322 145.382C124.57 145.63 124.818 145.795 125.149 145.878C125.479 146.043 125.892 146.043 126.223 146.043H132.751Z" fill="#2A76AC"/>
<path d="M144.568 146.043L142.75 148.688H133.742V138.523H144.568L142.667 141.168H136.635V142.407H144.072L142.419 144.721H136.635V146.043H144.568Z" fill="#2A76AC"/>
<path fill-rule="evenodd" clip-rule="evenodd" d="M92.2387 23.8435C96.8594 21.6077 102.225 20.5643 107.442 21.1605C113.405 21.7567 119.218 24.7379 123.391 29.0605C126.074 31.8926 128.31 35.3208 129.354 39.1963C129.652 40.2397 129.95 41.134 130.546 42.0284C131.291 42.9227 132.484 43.2208 133.527 43.5189C135.167 43.817 136.956 44.2642 138.446 45.0095C143.663 46.9472 147.986 50.8227 150.967 55.5925C153.501 59.9151 154.842 64.983 154.991 70.0509C155.14 75.566 153.65 81.0811 150.967 85.8509C149.625 88.2358 147.688 90.1735 145.601 91.9622C142.023 94.9433 137.552 96.4338 133.08 97.6263C131.739 97.9244 130.099 98.3716 128.757 97.6263C124.733 95.6886 120.857 94.0489 116.982 92.1112C115.342 91.515 113.852 90.7697 112.361 89.8754C114.746 89.4282 117.131 89.2792 119.516 88.981C124.137 88.2358 128.906 87.3414 133.229 85.1056C137.403 83.1679 140.831 79.4414 141.874 74.9698C143.067 70.7962 142.322 66.3245 140.384 62.5981C137.85 57.9774 133.229 54.8472 128.161 53.8038C126.074 53.3566 123.839 53.6547 121.752 53.3566C120.708 53.3566 119.665 52.6114 119.367 51.4189C119.218 50.5246 119.218 49.6302 119.218 48.7359C119.516 39.7925 112.212 30.9982 103.12 30.5511C98.2009 30.2529 93.2821 32.0416 89.7047 35.4699C87.0217 38.1529 85.3821 41.5812 83.5935 44.7114C83.1463 42.9227 82.8482 40.985 82.6991 39.0472C82.1029 35.1718 83.5935 30.9982 86.4255 28.3152C88.0651 26.5265 90.0029 24.8869 92.2387 23.8435Z" fill="#49BBEF"/>
<path fill-rule="evenodd" clip-rule="evenodd" d="M47.0744 47.5438C51.8442 44.1155 57.8064 42.3268 63.6196 42.1777C69.88 42.1777 76.1404 44.2645 81.0592 48.289C84.1894 50.5249 86.4252 53.6551 88.0648 57.2324C91.7912 64.9833 91.7912 73.9267 95.2195 81.6776C97.1573 86.2983 100.735 90.3229 105.355 92.5587C109.231 94.6455 113.553 95.8379 117.578 97.4775C118.472 97.7757 119.218 98.2228 120.112 98.819C117.578 99.2662 115.044 99.2662 112.659 99.5643C108.933 99.8624 105.206 99.4153 101.629 98.5209C97.1573 97.3285 93.2818 94.7945 90.0026 91.6644C87.3196 88.6832 85.0837 85.2549 83.7422 81.5285C81.9535 76.6097 81.5064 71.2437 80.0158 66.1758C79.2705 63.7909 78.5252 61.555 77.0347 59.6173C75.246 57.3815 73.0102 55.5928 70.4762 54.5494C67.346 53.3569 64.0668 53.2079 60.7876 53.506C54.9744 54.4003 49.7574 58.4248 47.3725 63.7909C45.2857 68.7097 45.5838 74.3739 48.1178 79.1436C50.6518 83.9134 55.4215 87.4908 60.7876 88.3851C63.7687 88.9813 67.0479 88.2361 69.7309 86.8946C71.6687 86.0002 73.1592 84.5097 74.7988 83.3172C75.3951 85.1059 75.8422 86.8946 76.8856 88.6832C77.6309 90.3229 78.9724 91.6644 80.0158 93.1549C76.8856 96.2851 72.4139 97.7757 68.2404 98.67C63.0234 99.8624 57.6574 99.2662 52.8876 97.4775C47.8197 95.3908 43.348 91.9625 40.3669 87.4908C37.982 84.2116 36.4914 80.3361 35.448 76.4606C34.8518 73.6286 35.0009 70.6474 35.1499 67.8154C35.8952 59.7664 40.3669 52.1645 47.0744 47.5438Z" fill="#2A76AC"/>
</svg>
